<?xml version="1.0" encoding="UTF-8"?>
<svg version="1.1" xmlns="http://www.w3.org/2000/svg" width="512" height="512">
<path d="M0 0 C1.02037354 0.00149048 2.04074707 0.00298096 3.09204102 0.0045166 C19.53332455 0.04749616 35.59982821 0.82225113 51.875 3.3125 C52.8458252 3.45171875 53.81665039 3.5909375 54.81689453 3.734375 C105.6617041 11.11631341 153.96578846 30.17556073 191.875 65.3125 C192.76445313 66.10333984 192.76445313 66.10333984 193.671875 66.91015625 C209.42206681 81.57283481 222.96127468 105.08430407 223.99780273 126.89672852 C224.08247572 130.03632053 224.11522164 133.17178327 224.125 136.3125 C224.12967285 137.43156738 224.1343457 138.55063477 224.13916016 139.70361328 C224.0914013 147.02133191 223.27259686 153.29780912 221.4140625 160.3671875 C220.51422265 165.28370379 221.65470506 169.55037339 222.875 174.3125 C224.1881657 180.28558007 224.10655787 186.2872979 224.125 192.375 C224.12894775 193.49374512 224.13289551 194.61249023 224.13696289 195.76513672 C224.08674352 202.88179135 223.41802089 209.02124439 221.484375 215.87109375 C220.62823303 219.30114971 221.03871168 221.90301685 221.875 225.3125 C227.79792486 249.85402289 223.78317193 274.78649039 210.70947266 296.22363281 C194.38847654 321.55231862 170.35534031 339.66753107 143.875 353.3125 C143.20065918 353.6626416 142.52631836 354.0127832 141.83154297 354.37353516 C116.26507636 367.47956156 88.24166458 375.13985915 60.0625 380.125 C58.9684082 380.3199707 57.87431641 380.51494141 56.74707031 380.71582031 C38.00733953 383.83269545 19.22010797 384.69424366 0.25 384.625 C-0.79571167 384.62317719 -1.84142334 384.62135437 -2.91882324 384.61947632 C-19.50298416 384.57100032 -35.71494038 383.88638081 -52.125 381.3125 C-53.26694824 381.14089355 -54.40889648 380.96928711 -55.58544922 380.79248047 C-109.9120776 372.47057805 -169.06606385 351.12140306 -204.125 306.3125 C-216.88501122 288.4830692 -224.27491089 269.73212658 -224.375 247.6875 C-224.395625 246.57503906 -224.41625 245.46257812 -224.4375 244.31640625 C-224.46953059 237.43783669 -223.68831406 231.42935504 -221.75415039 224.82128906 C-220.71272406 220.66851568 -221.64487751 217.29277356 -222.63085938 213.22607422 C-224.13653426 206.46592984 -224.47027965 199.97477725 -224.4375 193.0625 C-224.43766113 191.96147949 -224.43782227 190.86045898 -224.43798828 189.72607422 C-224.36020982 182.49906992 -223.50006849 176.24149885 -221.6640625 169.2578125 C-220.76422265 164.34129621 -221.90470506 160.07462661 -223.125 155.3125 C-228.29857998 131.50679631 -222.28239129 107.58062263 -209.9375 87.12109375 C-180.67981429 41.78429197 -125.9621138 18.27368792 -75.125 7.3125 C-70.033294 6.29587852 -64.93091402 5.37169353 -59.8125 4.5 C-58.67079346 4.3050293 -57.52908691 4.11005859 -56.3527832 3.90917969 C-37.63960937 0.91971161 -18.93065082 -0.06906731 0 0 Z " fill="#D4E9F8" transform="translate(256.125,49.6875)"/>
<path d="M0 0 C2.26961847 2.26961847 3.23254778 4.59984184 4.51074219 7.50878906 C12.96897504 26.67132055 26.27684308 42.42942186 43 55 C43.78431396 55.59675537 43.78431396 55.59675537 44.58447266 56.20556641 C53.59265268 63.0222081 63.02800557 68.71244502 73 74 C73.63631348 74.34272949 74.27262695 74.68545898 74.92822266 75.03857422 C130.91681704 105.036054 199.56452633 112.53043935 262 105 C262.85368164 104.90348145 263.70736328 104.80696289 264.58691406 104.70751953 C299.94772888 100.62742551 335.57753293 90.92468662 367 74 C367.66338379 73.64824707 368.32676758 73.29649414 369.01025391 72.93408203 C400.7010013 56.06116675 424.50297827 33.08398534 439 0 C445.28711925 6.28711925 444.3716989 18.96092409 444.4375 27.25 C444.24016834 58.3113797 429.61528749 81.35841973 408.234375 102.76953125 C395.15444254 115.25979462 380.02196657 124.74409266 364 133 C362.98848877 133.5252124 362.98848877 133.5252124 361.95654297 134.06103516 C336.39007636 147.16706156 308.36666458 154.82735915 280.1875 159.8125 C278.5463623 160.10495605 278.5463623 160.10495605 276.87207031 160.40332031 C258.13233953 163.52019545 239.34510797 164.38174366 220.375 164.3125 C219.32928833 164.31067719 218.28357666 164.30885437 217.20617676 164.30697632 C200.62201584 164.25850032 184.41005962 163.57388081 168 161 C166.28707764 160.74259033 166.28707764 160.74259033 164.53955078 160.47998047 C110.2129224 152.15807805 51.05893615 130.80890306 16 86 C3.23998878 68.1705692 -4.14991089 49.41962658 -4.25 27.375 C-4.270625 26.26253906 -4.29125 25.15007812 -4.3125 24.00390625 C-4.35049654 15.84414822 -3.71213177 7.42426354 0 0 Z " fill="#D4E9F8" transform="translate(36,270)"/>
<path d="M0 0 C2.30277983 2.30277983 3.30256926 4.71398397 4.61230469 7.66088867 C8.25928015 15.85954975 12.27246251 23.03807943 18 30 C18.45955078 30.56348145 18.91910156 31.12696289 19.39257812 31.70751953 C25.12633597 38.70277885 30.8609978 45.39542814 38 51 C38.88300781 51.73089844 39.76601562 52.46179688 40.67578125 53.21484375 C99.44428442 100.48353817 183.64677222 113.46104487 256.86016846 105.57043457 C312.42602063 99.24221371 368.58770071 82.04985269 410 43 C410.74765625 42.31679688 411.4953125 41.63359375 412.265625 40.9296875 C423.44036319 30.34103697 430.5358289 17.78389427 437 4 C437.66157279 2.66413187 438.32524861 1.32926024 439 0 C441 1 441 1 441.8515625 3.28125 C448.12922182 29.40645849 443.20405292 53.23204323 429.78369141 76.06982422 C420.34715723 91.09662895 407.38388447 103.75567515 393 114 C392.41138184 114.42087891 391.82276367 114.84175781 391.21630859 115.27539062 C325.00662727 162.0877746 235.46319621 171.381054 157.09423828 158.35058594 C127.13723568 152.9410812 97.85515173 143.39175238 71 129 C70.39994141 128.68063477 69.79988281 128.36126953 69.18164062 128.03222656 C36.42026078 110.43682899 11.11008997 84.77934437 -2.2265625 49.78125 C-6.45704248 35.07341306 -5.80068246 15.52641738 -1 1 C-0.67 0.67 -0.34 0.34 0 0 Z " fill="#E2EBF3" transform="translate(36,215)"/>
<path d="M0 0 C2.16405827 0.01006992 4.32812117 0.01918854 6.4921875 0.02734375 C11.70324352 0.04899344 16.91406753 0.08329201 22.125 0.125 C21.795 0.785 21.465 1.445 21.125 2.125 C18.36303711 2.63989258 18.36303711 2.63989258 14.65234375 3.01953125 C13.27608371 3.16858254 11.89986467 3.31801275 10.52368164 3.46777344 C9.7963382 3.54378784 9.06899475 3.61980225 8.3196106 3.69812012 C-42.04093854 9.03915319 -92.6275555 25.10611744 -131.875 58.125 C-132.78765625 58.77597656 -133.7003125 59.42695312 -134.640625 60.09765625 C-135.37796875 60.76667969 -136.1153125 61.43570313 -136.875 62.125 C-136.9215761 65.7487249 -136.9215761 65.7487249 -136.46484375 68.02734375 C-137.15479614 71.55595742 -140.07279531 73.17324864 -142.875 75.125 C-144.53871001 76.13820728 -146.2025758 77.151218 -147.87329102 78.15283203 C-162.17414798 87.11005171 -168.10075272 104.32582533 -171.875 120.125 C-176.06724325 143.81793606 -170.29116664 167.95237646 -157.03125 187.8984375 C-152.43649503 194.40767371 -147.34708873 200.34210416 -141.875 206.125 C-141.17761719 206.87523437 -140.48023438 207.62546875 -139.76171875 208.3984375 C-122.71257022 226.16446064 -100.24468604 238.39115167 -77.875 248.125 C-77.12718262 248.45193848 -76.37936523 248.77887695 -75.60888672 249.11572266 C-63.32623804 254.39546951 -50.59382854 257.96526909 -37.68652344 261.37890625 C-35.31978071 262.00696858 -32.95998126 262.65412248 -30.6015625 263.3125 C-19.53016503 266.28344104 -8.27300856 267.93677449 3.04882812 269.64941406 C8.08203204 270.42756337 13.1035572 271.27468447 18.125 272.125 C18.125 272.455 18.125 272.785 18.125 273.125 C-57.32855074 274.15513669 -137.11682537 262.13743353 -194.09765625 207.8984375 C-213.50028634 188.52309663 -225.98044012 164.24985512 -226.3125 136.75 C-226.18985742 105.53167845 -210.32096339 81.30053651 -188.74951172 59.89648438 C-154.88535765 27.89357972 -106.49360559 11.96450979 -61.5625 4.3125 C-60.42079346 4.1175293 -59.27908691 3.92255859 -58.1027832 3.72167969 C-38.75984842 0.631606 -19.56205878 -0.16149363 0 0 Z " fill="#D4E9F8" transform="translate(257.875,49.875)"/>
<path d="M0 0 C2.26961847 2.26961847 3.23254778 4.59984184 4.51074219 7.50878906 C12.96897504 26.67132055 26.27684308 42.42942186 43 55 C43.78431396 55.59675537 43.78431396 55.59675537 44.58447266 56.20556641 C53.59265268 63.0222081 63.02800557 68.71244502 73 74 C73.63631348 74.34272949 74.27262695 74.68545898 74.92822266 75.03857422 C130.91681704 105.036054 199.56452633 112.53043935 262 105 C262.85368164 104.90348145 263.70736328 104.80696289 264.58691406 104.70751953 C299.94772888 100.62742551 335.57753293 90.92468662 367 74 C367.66338379 73.64824707 368.32676758 73.29649414 369.01025391 72.93408203 C400.7010013 56.06116675 424.50297827 33.08398534 439 0 C442.26461029 3.26461029 442.93312315 6.93350521 443.078125 11.4140625 C442.06770134 30.44370802 430.81249297 47.74354297 419 62 C418.36964844 62.77214844 417.73929687 63.54429687 417.08984375 64.33984375 C413.11487419 69.05729054 408.76613757 73.09409214 404 77 C402.99066406 77.8353125 401.98132813 78.670625 400.94140625 79.53125 C392.4176447 86.47397131 383.50968505 92.49209853 374 98 C373.29311035 98.4110498 372.5862207 98.82209961 371.85791016 99.24560547 C353.53800738 109.74398788 333.36629673 117.47080086 313 123 C312.2776416 123.19899902 311.5552832 123.39799805 310.81103516 123.60302734 C294.12727528 128.1097819 277.08551333 130.59214655 260 133 C258.62690674 133.20351074 258.62690674 133.20351074 257.22607422 133.41113281 C187.23594878 143.57953655 103.89306732 127.31794974 46.625 85.4375 C39.28914206 79.7983711 32.45383486 73.62826282 26 67 C25.505 66.55011719 25.01 66.10023438 24.5 65.63671875 C11.24793192 53.27425709 -0.98372786 33.22710019 -3 15 C-3.02249275 9.67671544 -2.40629601 4.81259201 0 0 Z " fill="#D4E9F8" transform="translate(36,270)"/>
<path d="M0 0 C2.30277983 2.30277983 3.30256926 4.71398397 4.61230469 7.66088867 C8.25928015 15.85954975 12.27246251 23.03807943 18 30 C18.45955078 30.56348145 18.91910156 31.12696289 19.39257812 31.70751953 C25.12633597 38.70277885 30.8609978 45.39542814 38 51 C38.88300781 51.73089844 39.76601562 52.46179688 40.67578125 53.21484375 C99.44428442 100.48353817 183.64677222 113.46104487 256.86016846 105.57043457 C312.42602063 99.24221371 368.58770071 82.04985269 410 43 C410.74765625 42.31679688 411.4953125 41.63359375 412.265625 40.9296875 C423.44036319 30.34103697 430.5358289 17.78389427 437 4 C437.66157279 2.66413187 438.32524861 1.32926024 439 0 C439.66 0.33 440.32 0.66 441 1 C444.90822846 12.75022935 439.29354556 23.98161124 434.359375 34.49609375 C412.43559347 77.16550968 366.79443789 101.38411443 323.0078125 115.859375 C305.12413847 121.5004316 286.55523682 125.39043996 268 128 C266.75814941 128.17901855 265.51629883 128.35803711 264.23681641 128.54248047 C251.45316163 130.23758678 238.70730561 130.33864373 225.82714844 130.31567383 C222.16570626 130.3125349 218.50509181 130.33598416 214.84375 130.36132812 C193.25502103 130.42036815 171.57023727 129.10807296 150.5 124.125 C149.34387207 123.86235352 148.18774414 123.59970703 146.99658203 123.32910156 C144.70592617 122.80481495 142.41691115 122.27328928 140.12988281 121.73339844 C137.32888281 121.07706427 134.52313272 120.45764837 131.7109375 119.8515625 C86.30788801 109.73435743 36.33694173 83.80510023 10.75 43.5625 C3.871863 31.93219563 -3.19893819 18.90768305 -2 5 C-1 2 -1 2 0 0 Z " fill="#C2D8EF" transform="translate(36,215)"/>
<path d="M0 0 C1.8125 1.125 1.8125 1.125 3 3 C3.5625 5.875 3.5625 5.875 3 9 C-0.97672474 12.64978923 -5.31884114 15.68355659 -9.75 18.75 C-23.77793327 28.64554486 -34.74834875 39.88622426 -43 55 C-45.81481481 59.81481481 -45.81481481 59.81481481 -47 61 C-50.02512811 61.26305462 -52.20457456 61.41054216 -54.9375 60 C-56.326558 57.3853026 -56.25369952 55.31670684 -55.76171875 52.43359375 C-50.86141029 36.77773647 -19.28198558 -3.04452404 0 0 Z " fill="#FFFDFD" transform="translate(118,111)"/>
<path d="M0 0 C4.36808379 3.37533748 5.06141954 8.82336779 6 14 C6.08647014 16.71420167 5.78966233 18.34899075 5 21 C1.76746204 23.15502531 0.74849077 23.46856135 -3 23 C-6.31550534 20.7896631 -7.12436477 17.77196713 -8 14 C-8.82222263 4.09079965 -8.82222263 4.09079965 -6.63671875 1.19140625 C-4.30106144 -0.50877389 -2.81952011 -0.42292802 0 0 Z " fill="#FFFCFD" transform="translate(67,187)"/>
</svg>
